<svg width="12" height="12" viewBox="0 0 12 12" fill="none" xmlns="http://www.w3.org/2000/svg">
<path d="M5.99781 0C2.68517 0 0 2.68568 0 5.99782C0 9.31046 2.68517 11.9956 5.99781 11.9956C9.30995 11.9956 11.9956 9.30995 11.9956 5.99782C11.9956 2.68568 9.30995 0 5.99781 0ZM4.52846 7.60841C4.52846 7.93256 4.26579 8.19473 3.94215 8.19473C3.618 8.19473 3.35583 7.93256 3.35583 7.60841V5.10869C3.35583 4.78453 3.618 4.52186 3.94215 4.52186C4.26579 4.52186 4.52846 4.78453 4.52846 5.10869V7.60841ZM8.67028 7.56624C8.67028 8.02452 8.40253 8.18863 7.94425 8.18863H5.83574C5.37746 8.18863 5.00605 7.81723 5.00605 7.35895V5.28499C5.00605 5.28499 4.9649 4.94001 5.34697 4.61585C5.5629 4.43244 5.8835 4.08238 6.10756 3.65763C6.55263 2.81372 6.81886 2.56781 7.02158 2.63386C7.77252 2.87722 7.39705 3.99042 7.1547 4.4553H7.8406C8.29837 4.4553 8.67028 4.82671 8.67028 5.28499V7.56624Z" fill="#5D5DFF"/>
</svg>
